<svg width="20" height="21" viewBox="0 0 20 21" fill="none" xmlns="http://www.w3.org/2000/svg">
<g clip-path="url(#clip0_52_369)">
<path d="M0.833313 1.33331H4.16665L6.39998 12.4916C6.47618 12.8753 6.6849 13.2199 6.9896 13.4652C7.2943 13.7105 7.67556 13.8408 8.06665 13.8333H16.1666C16.5577 13.8408 16.939 13.7105 17.2437 13.4652C17.5484 13.2199 17.7571 12.8753 17.8333 12.4916L19.1666 5.49998H4.99998M8.33331 18C8.33331 18.4602 7.96022 18.8333 7.49998 18.8333C7.03974 18.8333 6.66665 18.4602 6.66665 18C6.66665 17.5397 7.03974 17.1666 7.49998 17.1666C7.96022 17.1666 8.33331 17.5397 8.33331 18ZM17.5 18C17.5 18.4602 17.1269 18.8333 16.6666 18.8333C16.2064 18.8333 15.8333 18.4602 15.8333 18C15.8333 17.5397 16.2064 17.1666 16.6666 17.1666C17.1269 17.1666 17.5 17.5397 17.5 18Z" stroke="#F3F3F3" stroke-width="2" stroke-linecap="round" stroke-linejoin="round"/>
</g>
<defs>
<clipPath id="clip0_52_369">
<rect width="20" height="20" fill="white" transform="translate(0 0.5)"/>
</clipPath>
</defs>
</svg>
